<?xml version="1.0" encoding="utf-8"?>
<!-- Generator: Adobe Illustrator 23.0.0, SVG Export Plug-In . SVG Version: 6.00 Build 0)  -->
<svg version="1.1" id="Layer_1" xmlns="http://www.w3.org/2000/svg" xmlns:xlink="http://www.w3.org/1999/xlink" x="0px" y="0px"
	 viewBox="0 0 371.23 404.43" style="enable-background:new 0 0 371.23 404.43;" xml:space="preserve">
<style type="text/css">
	.st0{fill:#6867AF;}
	.st1{fill:#5757A6;}
	.st2{fill:#FEDD56;}
	.st3{fill:#ECBE1D;}
	.st4{fill:#F99D26;}
	.st5{fill:#FFFFFF;}
	.st6{fill:#E7E5F3;}
	.st7{fill:#F15C5E;}
	.st8{fill:#C82127;}
	.st9{fill:#C48900;}
</style>
<circle class="st0" cx="184" cy="175.94" r="166"/>
<path class="st1" d="M77.66,140.29l-57.61,61.74C32.57,281.31,101.2,341.94,184,341.94c4.54,0,9.03-0.19,13.47-0.55l114.56-99.35
	L106.7,161.1L77.66,140.29z"/>
<path id="Trazado_2163" class="st2" d="M283.13,232.07c0.13-7.71-5.89-14.11-13.6-14.24c-0.8,0.03-1.6,0.06-2.3,0.18
	c-0.67-7.68-7.37-13.35-15.05-12.69c-2,0.17-3.88,0.73-5.64,1.7c6.56-4.03,8.57-12.6,4.44-19.16c-2.23-3.63-6.01-6-10.23-6.45
	c-3.58-5.08-10.15-7.15-16.08-5.05c-2.15-7.33-9.91-11.57-17.24-9.51c-7.43,2.16-11.67,9.91-9.41,17.24
	c0.68,2.38,2.06,4.53,3.82,6.27c-5.21,5.58-4.9,14.48,0.78,19.68c0.1,0.1,0.31,0.29,0.41,0.39c-1.35,4.45-0.48,9.32,2.45,12.92
	c-3.4,2.82-5.36,7.09-5.1,11.58l39.02,5.76L283.13,232.07z"/>
<g id="Grupo_129" transform="translate(127.467 49.359)">
	<path id="Trazado_2164" class="st3" d="M140.66,209.33c2.77,5.01,9.07,6.9,14.08,4.13c5.01-2.77,6.9-9.07,4.13-14.08
		c-1.07-1.91-2.63-3.46-4.61-4.44c2.81-4.96,1.03-11.39-4-14.13c-5.03-2.74-11.39-1.03-14.13,4c-0.91,1.63-1.33,3.47-1.33,5.31
		c-5.73,0.23-10.24,4.91-10.08,10.71c0.09,5.73,4.91,10.24,10.71,10.08C137.27,210.9,139.11,210.33,140.66,209.33L140.66,209.33z"/>
	<path id="Trazado_2164_1_" class="st3" d="M162.39,203.57c2.77,5.01,9.07,6.9,14.08,4.13c5.01-2.77,6.9-9.07,4.13-14.08
		c-1.07-1.91-2.63-3.46-4.61-4.44c2.81-4.96,1.03-11.39-4-14.13s-11.39-1.03-14.13,4c-0.91,1.63-1.33,3.47-1.33,5.31
		c-5.73,0.23-10.24,4.91-10.08,10.71c0.09,5.73,4.91,10.24,10.71,10.08C159,205.14,160.84,204.56,162.39,203.57L162.39,203.57z"/>
	<path id="Trazado_2165" class="st3" d="M121,204.13c2.34,4.02,7.59,5.44,11.71,3c4.12-2.44,5.44-7.59,3-11.71
		c-0.95-1.57-2.3-2.72-3.92-3.47c2.16-4.18,0.58-9.33-3.6-11.48s-9.33-0.58-11.48,3.6c-0.75,1.33-1,2.84-0.95,4.34
		c-4.69,0.26-8.26,4.29-7.99,8.98c0.26,4.69,4.29,8.26,8.98,7.99C118.25,205.53,119.73,204.98,121,204.13L121,204.13z"/>
	<path id="Trazado_2166" class="st3" d="M92.7,204.46c7.01,3.06,15.2-0.12,18.36-7.14c1.11-2.54,1.42-5.35,0.92-8.14
		c5.92-2.31,9.52-8.23,8.8-14.61c7.69-0.37,13.57-6.97,13.2-14.66c-0.05-1.4-0.4-2.79-0.84-4.07c3.78-5.79-2.23-11.78-7.51-10.82
		h-61.7c0.17,2,0.64,4.08,1.7,5.84c-1.05,4.24,0,8.71,2.72,12.01c-5.93,4.91-6.83,13.64-1.93,19.58c0.63,0.78,1.35,1.55,2.17,2.13
		c0.55,1.48,1.3,2.86,2.34,4.12c-5.93,4.91-6.83,13.64-1.93,19.58c4.91,5.93,13.64,6.83,19.58,1.93
		C90.45,208.84,91.88,206.79,92.7,204.46L92.7,204.46z"/>
	<path id="Trazado_2167" class="st3" d="M93.71,135.09c3.53,3.58,9.23,3.58,12.81,0.16c3.58-3.53,3.58-9.23,0.16-12.81
		c-1.35-1.35-3.08-2.3-4.89-2.63c1.13-4.84-1.84-9.74-6.78-10.87s-9.74,1.84-10.87,6.78c-0.34,1.61-0.29,3.21,0.16,4.7
		c-4.75,1.46-7.48,6.56-5.91,11.41c1.46,4.75,6.56,7.38,11.41,5.91C91.18,137.17,92.55,136.23,93.71,135.09L93.71,135.09z"/>
</g>
<path id="Trazado_2168" class="st4" d="M198.91,227.57c-3.48,3.52-3.48,9.33,0.14,12.8c3.52,3.48,9.33,3.48,12.81-0.04
	c1.35-1.35,2.2-3.08,2.53-4.99c4.84,1.03,9.74-2.04,10.77-6.88c1.03-4.94-2.04-9.74-6.88-10.77c-1.61-0.34-3.21-0.29-4.79,0.27
	c-1.56-4.75-6.75-7.27-11.5-5.71c-4.75,1.56-7.27,6.75-5.71,11.5C196.83,225.14,197.68,226.51,198.91,227.57L198.91,227.57z"/>
<path id="Trazado_2169" class="st5" d="M60.98,185.61l-0.92-26.78l71.93-8.99l64.69,4.27l8.06,13.13l-7.13,13.65l-64.24,8.72
	L60.98,185.61z"/>
<path id="Trazado_2170" class="st6" d="M62.84,239.28l-0.92-26.78l71.93-8.99l64.69,4.27l8.06,13.13l-7.13,13.65l-64.24,8.72
	L62.84,239.28z"/>
<g id="Grupo_130" transform="translate(95.984 117.616)">
	<path id="Trazado_2171" class="st7" d="M-35.84,41.19l-0.92-26.78L99.85,9.69l8.06,13.13l-7.13,13.65L-35.84,41.19z"/>
	<path id="Trazado_2172" class="st7" d="M-34.46,81.36l-0.46-13.29l136.62-4.72l8.06,13.13l-71.91,9.59L-34.46,81.36z"/>
	<path id="Trazado_2173" class="st8" d="M-32.14,148.42l-0.92-26.78l136.62-4.72l8.06,13.13l-7.13,13.65L-32.14,148.42
		L-32.14,148.42z"/>
</g>
<path id="Trazado_2174" class="st2" d="M268.16,229.58c-2.68,5.13-0.59,11.46,4.54,14.14c5.13,2.68,11.46,0.59,14.14-4.54
	c1.04-1.96,1.4-4.13,1.05-6.31c5.75-0.46,10.04-5.53,9.6-11.38s-5.53-10.04-11.38-9.6c-1.86,0.2-3.68,0.81-5.18,1.88
	c-3.37-4.72-9.88-5.8-14.6-2.43c-4.72,3.37-5.8,9.88-2.43,14.6C264.94,227.63,266.37,228.78,268.16,229.58z"/>
<path id="Trazado_2175" class="st2" d="M312.03,242.04c5.8,0.5,10.9-3.8,11.3-9.6c0.5-5.8-3.8-10.9-9.6-11.3
	c-2.2-0.2-4.4,0.3-6.3,1.4c-2.6-5.1-9-7.2-14.1-4.5c-5.2,2.6-7.2,9-4.5,14.1c0.9,1.7,2.2,3.1,3.7,4.1c-3.1,4.9-1.6,11.4,3.4,14.4
	c4.9,3.1,11.4,1.5,14.4-3.4C311.53,245.74,312.03,243.94,312.03,242.04L312.03,242.04z"/>
<path id="Trazado_2176" class="st8" d="M61.91,212.49L61.44,199l144.31-4.98l-7.13,13.65L61.91,212.49L61.91,212.49z"/>
<g>
	<path class="st9" d="M67.4,387.24c-1.2,0-2-0.3-2.7-0.9c-0.6-0.6-0.9-1.5-0.9-2.7v-29.4c0-1.2,0.3-2.1,1-2.8
		c0.7-0.6,1.6-0.9,2.7-0.9c1,0,1.8,0.2,2.4,0.6s1.1,1,1.6,1.9l11.8,21.5h-1.6l11.8-21.5c0.5-0.9,1-1.6,1.6-1.9
		c0.6-0.4,1.4-0.6,2.4-0.6c1.1,0,2,0.3,2.6,0.9s0.9,1.5,0.9,2.8v29.4c0,1.2-0.3,2.1-0.9,2.7s-1.5,0.9-2.7,0.9c-1.1,0-2-0.3-2.6-0.9
		s-0.9-1.5-0.9-2.7v-20.6H95l-9.5,17c-0.4,0.6-0.8,1.1-1.2,1.4s-1,0.5-1.8,0.5s-1.4-0.2-1.9-0.5s-0.9-0.8-1.3-1.4l-9.5-17H71v20.7
		c0,1.2-0.3,2.1-0.9,2.7C69.4,386.94,68.5,387.24,67.4,387.24z"/>
	<path class="st9" d="M119.7,387.34c-2.7,0-5-0.5-7-1.6s-3.5-2.6-4.6-4.5c-1.1-2-1.7-4.3-1.7-7c0-2,0.3-3.8,0.9-5.4s1.5-3,2.7-4.1
		s2.6-2,4.2-2.6s3.5-0.9,5.4-0.9c2.7,0,5,0.5,7,1.6c2,1.1,3.5,2.6,4.6,4.5c1.1,2,1.7,4.3,1.7,6.9c0,2-0.3,3.8-0.9,5.5
		c-0.6,1.6-1.5,3-2.7,4.1c-1.2,1.1-2.6,2-4.2,2.6C123.6,387.04,121.8,387.34,119.7,387.34z M119.7,381.64c1.1,0,2.1-0.3,2.9-0.8
		s1.5-1.3,1.9-2.4c0.5-1.1,0.7-2.5,0.7-4.1c0-2.5-0.5-4.3-1.5-5.5s-2.4-1.8-4-1.8c-1.1,0-2,0.3-2.9,0.8c-0.8,0.5-1.5,1.3-1.9,2.4
		c-0.5,1.1-0.7,2.4-0.7,4.1c0,2.5,0.5,4.4,1.5,5.6C116.8,381.04,118.1,381.64,119.7,381.64z"/>
	<path class="st9" d="M147.8,387.24c-1,0-1.9-0.3-2.6-0.8c-0.7-0.5-1.4-1.3-1.9-2.3l-7.6-17.7c-0.4-0.9-0.5-1.7-0.4-2.5
		s0.5-1.4,1.1-1.8c0.6-0.5,1.5-0.7,2.6-0.7c1,0,1.7,0.2,2.3,0.6s1.1,1.2,1.5,2.5l6.1,15.2h-1.6l6.2-15.4c0.5-1.2,1-1.9,1.6-2.4
		c0.6-0.4,1.4-0.6,2.4-0.6c0.9,0,1.6,0.2,2.1,0.7s0.8,1.1,1,1.8c0.1,0.7,0,1.6-0.4,2.4l-7.9,17.8c-0.4,1-1,1.8-1.8,2.3
		C149.7,387.04,148.8,387.24,147.8,387.24z"/>
	<path class="st9" d="M168.2,357.34c-1.4,0-2.5-0.3-3.2-1s-1.1-1.6-1.1-2.9c0-1.2,0.4-2.2,1.1-2.8c0.7-0.7,1.8-1,3.2-1
		s2.5,0.3,3.3,1s1.1,1.6,1.1,2.8c0,1.3-0.4,2.2-1.1,2.9C170.7,356.94,169.6,357.34,168.2,357.34z M168.2,387.24
		c-1.2,0-2.1-0.4-2.8-1.1s-1-1.8-1-3.1v-17.5c0-1.4,0.3-2.4,1-3.1s1.6-1,2.8-1c1.3,0,2.2,0.3,2.9,1s1,1.7,1,3.1v17.5
		c0,1.3-0.3,2.4-1,3.1C170.4,386.94,169.5,387.24,168.2,387.24z"/>
	<path class="st9" d="M191,387.34c-3,0-5.5-0.5-7.6-1.6s-3.8-2.6-4.9-4.5c-1.1-2-1.7-4.3-1.7-7c0-2.6,0.6-4.8,1.7-6.8
		c1.1-1.9,2.6-3.4,4.6-4.6s4.1-1.7,6.6-1.7c1.9,0,3.5,0.3,5,0.9c1.4,0.6,2.7,1.4,3.7,2.5c1.1,1.1,1.9,2.4,2.4,4s0.8,3.3,0.8,5.3
		c0,0.6-0.2,1.1-0.6,1.5c-0.4,0.3-1,0.5-1.8,0.5h-16v-4H196l-0.8,0.7c0-1.4-0.2-2.6-0.6-3.5c-0.4-0.9-1-1.6-1.8-2.1
		s-1.7-0.7-2.8-0.7c-1.3,0-2.3,0.3-3.2,0.9s-1.6,1.4-2,2.5c-0.5,1.1-0.7,2.4-0.7,4v0.4c0,2.6,0.6,4.5,1.8,5.7s3,1.8,5.4,1.8
		c0.8,0,1.7-0.1,2.8-0.3s2-0.5,3-1c0.8-0.4,1.5-0.5,2.1-0.4s1,0.4,1.4,0.8s0.6,0.9,0.6,1.5s-0.1,1.1-0.4,1.7c-0.3,0.6-0.8,1-1.5,1.4
		c-1.2,0.7-2.5,1.2-4,1.5C193.8,387.24,192.4,387.34,191,387.34z"/>
	<path class="st9" d="M210.6,387.24c-1.3,0-2.2-0.3-2.9-1s-1-1.7-1-3v-28.3c0-1.3,0.3-2.3,1-3s1.7-1,2.9-1H223c4,0,7.1,1,9.3,3.1
		c2.2,2,3.3,4.8,3.3,8.4s-1.1,6.4-3.3,8.5s-5.3,3.1-9.3,3.1h-8.5v9.3c0,1.3-0.3,2.3-1,3S211.9,387.24,210.6,387.24z M214.6,367.84
		h7.2c2,0,3.6-0.5,4.7-1.4c1.1-0.9,1.6-2.3,1.6-4.1c0-1.8-0.5-3.1-1.6-4s-2.6-1.3-4.7-1.3h-7.2V367.84z"/>
	<path class="st9" d="M250.5,387.34c-2.7,0-5-0.5-7-1.6s-3.5-2.6-4.6-4.5c-1.1-2-1.7-4.3-1.7-7c0-2,0.3-3.8,0.9-5.4
		c0.6-1.6,1.5-3,2.7-4.1s2.6-2,4.2-2.6c1.6-0.6,3.5-0.9,5.4-0.9c2.7,0,5,0.5,7,1.6c2,1.1,3.5,2.6,4.6,4.5c1.1,2,1.7,4.3,1.7,6.9
		c0,2-0.3,3.8-0.9,5.5s-1.5,3-2.7,4.1c-1.2,1.1-2.5,2-4.2,2.6C254.4,387.04,252.6,387.34,250.5,387.34z M250.5,381.64
		c1.1,0,2.1-0.3,2.9-0.8c0.8-0.5,1.5-1.3,1.9-2.4c0.5-1.1,0.7-2.5,0.7-4.1c0-2.5-0.5-4.3-1.5-5.5s-2.4-1.8-4-1.8
		c-1.1,0-2,0.3-2.9,0.8c-0.8,0.5-1.5,1.3-1.9,2.4c-0.5,1.1-0.7,2.4-0.7,4.1c0,2.5,0.5,4.4,1.5,5.6
		C247.6,381.04,248.9,381.64,250.5,381.64z"/>
	<path class="st9" d="M272.4,396.44c-1.2,0-2.1-0.3-2.8-1c-0.7-0.6-1-1.6-1-2.9v-27.3c0-1.3,0.3-2.2,1-2.9c0.7-0.7,1.6-1,2.8-1
		s2.1,0.3,2.8,1s1,1.6,1,2.9v3.5l-0.6-2c0.5-1.7,1.5-3,3.1-4c1.5-1,3.3-1.5,5.3-1.5c2.2,0,4.1,0.5,5.8,1.6s2.9,2.5,3.9,4.5
		c0.9,1.9,1.4,4.3,1.4,6.9c0,2.7-0.5,5-1.4,7s-2.2,3.5-3.8,4.5c-1.6,1-3.6,1.6-5.8,1.6c-2,0-3.7-0.5-5.3-1.4s-2.5-2.2-3.1-3.7h0.6
		v10.4c0,1.3-0.3,2.3-1,2.9C274.6,396.14,273.6,396.44,272.4,396.44z M281.7,381.64c1.1,0,2-0.3,2.9-0.8s1.5-1.3,1.9-2.4
		c0.5-1.1,0.7-2.5,0.7-4.1c0-2.5-0.5-4.3-1.5-5.5s-2.3-1.8-4-1.8c-1.1,0-2,0.3-2.9,0.8c-0.8,0.5-1.5,1.3-1.9,2.4
		c-0.5,1.1-0.7,2.4-0.7,4.1c0,2.5,0.5,4.4,1.5,5.6C278.7,381.04,280.1,381.64,281.7,381.64z"/>
	<path class="st9" d="M303.4,387.14c-1.4,0-2.4-0.4-3.2-1.2s-1.2-1.9-1.2-3.2c0-1.3,0.4-2.3,1.2-3.1c0.8-0.8,1.9-1.2,3.2-1.2
		c1.4,0,2.4,0.4,3.2,1.2c0.8,0.8,1.1,1.8,1.1,3.1c0,1.3-0.4,2.4-1.1,3.2C305.8,386.74,304.7,387.14,303.4,387.14z M303.4,375.84
		c-0.8,0-1.4-0.2-1.8-0.7s-0.7-1.2-0.8-2l-1.7-17.5c-0.2-1.5,0.1-2.7,0.9-3.6s1.9-1.4,3.4-1.4s2.6,0.5,3.3,1.4
		c0.7,0.9,1,2.1,0.8,3.6l-1.6,17.5c-0.1,0.9-0.4,1.6-0.8,2C304.7,375.54,304.1,375.84,303.4,375.84z"/>
</g>
<path id="Trazado_2168_1_" class="st4" d="M249.38,236.02c-4.92,0.54-8.58,5.04-7.97,10.02c0.54,4.92,5.04,8.58,9.96,8.05
	c1.9-0.19,3.64-1,5.11-2.28c3.1,3.85,8.84,4.56,12.69,1.46c3.91-3.18,4.56-8.84,1.46-12.69c-1.03-1.28-2.31-2.25-3.89-2.82
	c1.78-4.67-0.66-9.9-5.33-11.68c-4.67-1.78-9.9,0.66-11.68,5.33C249.3,232.82,249.09,234.42,249.38,236.02L249.38,236.02z"/>
</svg>
