<?xml version="1.0" encoding="utf-8"?>
<!-- Generator: Adobe Illustrator 23.0.0, SVG Export Plug-In . SVG Version: 6.00 Build 0)  -->
<svg version="1.1" id="Logo" xmlns="http://www.w3.org/2000/svg" xmlns:xlink="http://www.w3.org/1999/xlink" x="0px" y="0px"
	 viewBox="0 0 332 387.9" style="enable-background:new 0 0 332 387.9;" xml:space="preserve">
<style type="text/css">
	.st0{fill:#6867AF;}
	.st1{fill:#5757A6;}
	.st2{fill:#FEDD56;}
	.st3{fill:#ECBE1D;}
	.st4{fill:#F99D26;}
	.st5{fill:#FFFFFF;}
	.st6{fill:#E7E5F3;}
	.st7{fill:#F15C5E;}
	.st8{fill:#C82127;}
	.st9{fill:#C48900;}
</style>
<g id="Grupo_128">
	<g id="Grupo_127">
		<g id="Grupo_126">
			<g id="Grupo_125">
				<g id="Grupo_124">
					<g id="Grupo_123">
						<g id="Grupo_122">
							<g id="Grupo_121">
								<g id="Grupo_120">
									<g id="Grupo_119">
										<g id="Grupo_118">
											<g id="Grupo_117">
												<g id="Grupo_116">
													<g id="Grupo_115">
														<circle id="Elipse_108" class="st0" cx="166" cy="166" r="166"/>
													</g>
												</g>
											</g>
										</g>
									</g>
								</g>
							</g>
						</g>
					</g>
				</g>
			</g>
		</g>
	</g>
</g>
<path id="Trazado_2162" class="st1" d="M217.8,92.6l-12.5-12.5l-0.7,0.7L190,66.3l-2.5,2.5l-15.2-15.2L98.5,237.7L76.7,266
	l63.8,63.8c88.1,13.5,171.1-44.8,188.1-132.3L220.8,89.6L217.8,92.6z"/>
<path id="Trazado_2163" class="st2" d="M163,49.4c-7.7-0.4-14.3,5.4-14.7,13.1c0,0.8,0,1.6,0.1,2.3c-7.7,0.4-13.6,6.9-13.2,14.6
	c0.1,2,0.6,3.9,1.5,5.7c-3.8-6.7-12.3-9-19-5.1c-3.7,2.1-6.2,5.8-6.8,10c-5.2,3.4-7.5,9.9-5.6,15.9c-7.4,1.9-11.9,9.5-10.1,16.9
	c1.9,7.5,9.5,12,16.9,10c2.4-0.6,4.6-1.9,6.4-3.6c5.4,5.4,14.3,5.4,19.7-0.1c0.1-0.1,0.3-0.3,0.4-0.4c4.4,1.5,9.3,0.8,13-2
	c2.7,3.5,6.9,5.6,11.4,5.5l7.1-38.8L163,49.4z"/>
<g id="Grupo_129" transform="translate(127.467 49.359)">
	<path id="Trazado_2164" class="st3" d="M120.4,191.8c1.6-5.5-1.5-11.3-7-12.9c-5.5-1.6-11.3,1.5-12.9,7c-0.6,2.1-0.6,4.3,0.1,6.4
		c-5.5,1.5-8.8,7.3-7.2,12.8s7.3,8.8,12.8,7.2c1.8-0.5,3.4-1.5,4.7-2.8c4.2,3.9,10.7,3.8,14.7-0.4c4-4.1,3.8-10.7-0.4-14.7
		C123.9,193.1,122.2,192.2,120.4,191.8L120.4,191.8z"/>
	<path id="Trazado_2165" class="st3" d="M142.5,199.6c4.1-2.2,5.7-7.4,3.4-11.6s-7.4-5.7-11.6-3.4c-1.6,0.9-2.8,2.2-3.6,3.8
		c-4.1-2.3-9.3-0.9-11.6,3.2s-0.9,9.3,3.2,11.6c1.3,0.8,2.8,1.1,4.3,1.1c0.1,4.7,4,8.4,8.7,8.3c4.7-0.1,8.4-4,8.3-8.7
		C143.8,202.4,143.3,200.9,142.5,199.6L142.5,199.6z"/>
	<path id="Trazado_2166" class="st3" d="M95.8,55.9c3.3-6.9,0.4-15.2-6.5-18.6c-2.5-1.2-5.3-1.6-8.1-1.2c-2.1-6-7.9-9.8-14.3-9.3
		c-0.1-7.7-6.5-13.8-14.2-13.7c-1.4,0-2.8,0.3-4.1,0.7c0-7.4-5.8-13.5-13.2-13.9v82.7c2-0.1,4.1-0.5,5.9-1.5
		c4.2,1.2,8.7,0.3,12.1-2.3c4.7,6.1,13.4,7.3,19.5,2.6c0.8-0.6,1.6-1.3,2.2-2.1c1.5-0.5,2.9-1.2,4.2-2.2c4.7,6.1,13.4,7.3,19.5,2.6
		c6.1-4.7,7.3-13.4,2.6-19.5C100.1,58.3,98.1,56.8,95.8,55.9L95.8,55.9z"/>
	<path id="Trazado_2167" class="st3" d="M26.5,52.5c3.7-3.4,3.9-9.1,0.6-12.8c-3.4-3.7-9.1-3.9-12.8-0.6c-1.4,1.3-2.4,3-2.8,4.8
		c-4.8-1.3-9.8,1.5-11.1,6.4s1.5,9.8,6.4,11.1c1.6,0.4,3.2,0.4,4.7,0c1.3,4.8,6.3,7.7,11.2,6.3c4.8-1.3,7.6-6.3,6.3-11.2
		C28.5,55.1,27.6,53.7,26.5,52.5L26.5,52.5z"/>
</g>
<path id="Trazado_2168" class="st4" d="M196.3,125.6c3.4,3.6,9.2,3.8,12.8,0.3c3.6-3.4,3.8-9.2,0.4-12.8c-1.3-1.4-3-2.3-4.9-2.7
	c1.2-4.8-1.7-9.8-6.5-11c-4.9-1.2-9.8,1.7-11,6.5c-0.4,1.6-0.4,3.2,0.1,4.8c-4.8,1.4-7.5,6.5-6.1,11.3s6.5,7.5,11.3,6.1
	C193.8,127.6,195.2,126.8,196.3,125.6L196.3,125.6z"/>
<path id="Trazado_2169" class="st5" d="M149.6,262h-26.8l-6.5-72.2l6.5-64.5l13.4-7.6l13.4,7.6l6.5,64.5L149.6,262z"/>
<path id="Trazado_2170" class="st6" d="M203.3,262h-26.8l-6.5-72.2l6.5-64.5l13.4-7.6l13.4,7.6l6.5,64.5L203.3,262z"/>
<g id="Grupo_130" transform="translate(95.984 117.616)">
	<path id="Trazado_2171" class="st7" d="M26.8,144.3H0V7.6L13.4,0l13.4,7.6L26.8,144.3z"/>
	<path id="Trazado_2172" class="st7" d="M67,144.3H53.7V7.6L67.1,0l7.1,72.2L67,144.3z"/>
	<path id="Trazado_2173" class="st8" d="M134.1,144.3h-26.8V7.6L120.7,0l13.4,7.6V144.3z"/>
</g>
<path id="Trazado_2174" class="st2" d="M97,252.3c1.8-5.5-1.3-11.4-6.8-13.2c-5.5-1.8-11.4,1.3-13.2,6.8c-0.7,2.1-0.7,4.3,0,6.4
	c-5.6,1.4-9,7.1-7.6,12.8s7.1,9,12.8,7.6c1.8-0.5,3.5-1.4,4.8-2.7c4.1,4.1,10.7,4.1,14.8,0c4.1-4.1,4.1-10.7,0-14.8
	C100.5,253.7,98.9,252.8,97,252.3z"/>
<path id="Trazado_2175" class="st2" d="M138.6,280.9c5.8,0.5,10.9-3.8,11.3-9.6c0.5-5.8-3.8-10.9-9.6-11.3c-2.2-0.2-4.4,0.3-6.3,1.4
	c-2.6-5.1-9-7.2-14.1-4.5c-5.2,2.6-7.2,9-4.5,14.1c0.9,1.7,2.2,3.1,3.7,4.1c-3.1,4.9-1.6,11.4,3.4,14.4c4.9,3.1,11.4,1.5,14.4-3.4
	C138.1,284.6,138.6,282.8,138.6,280.9L138.6,280.9z"/>
<path id="Trazado_2176" class="st8" d="M176.5,262H163l0-144.4l13.4,7.6L176.5,262L176.5,262z"/>
<g>
	<path class="st9" d="M49.4,377.3c-1.2,0-2-0.3-2.7-0.9c-0.6-0.6-0.9-1.5-0.9-2.7v-29.4c0-1.2,0.3-2.1,1-2.8
		c0.7-0.6,1.6-0.9,2.7-0.9c1,0,1.8,0.2,2.4,0.6c0.6,0.4,1.1,1,1.6,1.9l11.8,21.5h-1.6l11.8-21.5c0.5-0.9,1-1.6,1.6-1.9
		c0.6-0.4,1.4-0.6,2.4-0.6c1.1,0,2,0.3,2.6,0.9c0.6,0.6,0.9,1.5,0.9,2.8v29.4c0,1.2-0.3,2.1-0.9,2.7c-0.6,0.6-1.5,0.9-2.7,0.9
		c-1.1,0-2-0.3-2.6-0.9c-0.6-0.6-0.9-1.5-0.9-2.7v-20.6H77l-9.5,17c-0.4,0.6-0.8,1.1-1.2,1.4s-1,0.5-1.8,0.5c-0.8,0-1.4-0.2-1.9-0.5
		c-0.5-0.3-0.9-0.8-1.3-1.4l-9.5-17h1.2v20.7c0,1.2-0.3,2.1-0.9,2.7C51.4,377,50.5,377.3,49.4,377.3z"/>
	<path class="st9" d="M101.7,377.4c-2.7,0-5-0.5-7-1.6c-2-1.1-3.5-2.6-4.6-4.5c-1.1-2-1.7-4.3-1.7-7c0-2,0.3-3.8,0.9-5.4
		c0.6-1.6,1.5-3,2.7-4.1c1.2-1.1,2.6-2,4.2-2.6c1.6-0.6,3.5-0.9,5.4-0.9c2.7,0,5,0.5,7,1.6c2,1.1,3.5,2.6,4.6,4.5
		c1.1,2,1.7,4.3,1.7,6.9c0,2-0.3,3.8-0.9,5.5c-0.6,1.6-1.5,3-2.7,4.1c-1.2,1.1-2.6,2-4.2,2.6C105.6,377.1,103.8,377.4,101.7,377.4z
		 M101.7,371.7c1.1,0,2.1-0.3,2.9-0.8s1.5-1.3,1.9-2.4c0.5-1.1,0.7-2.5,0.7-4.1c0-2.5-0.5-4.3-1.5-5.5s-2.4-1.8-4-1.8
		c-1.1,0-2,0.3-2.9,0.8c-0.8,0.5-1.5,1.3-1.9,2.4c-0.5,1.1-0.7,2.4-0.7,4.1c0,2.5,0.5,4.4,1.5,5.6
		C98.8,371.1,100.1,371.7,101.7,371.7z"/>
	<path class="st9" d="M129.8,377.3c-1,0-1.9-0.3-2.6-0.8c-0.7-0.5-1.4-1.3-1.9-2.3l-7.6-17.7c-0.4-0.9-0.5-1.7-0.4-2.5
		c0.1-0.8,0.5-1.4,1.1-1.8c0.6-0.5,1.5-0.7,2.6-0.7c1,0,1.7,0.2,2.3,0.6s1.1,1.2,1.5,2.5l6.1,15.2h-1.6l6.2-15.4
		c0.5-1.2,1-1.9,1.6-2.4c0.6-0.4,1.4-0.6,2.4-0.6c0.9,0,1.6,0.2,2.1,0.7c0.5,0.5,0.8,1.1,1,1.8c0.1,0.7,0,1.6-0.4,2.4l-7.9,17.8
		c-0.4,1-1,1.8-1.8,2.3C131.7,377.1,130.8,377.3,129.8,377.3z"/>
	<path class="st9" d="M150.2,347.4c-1.4,0-2.5-0.3-3.2-1c-0.7-0.7-1.1-1.6-1.1-2.9c0-1.2,0.4-2.2,1.1-2.8c0.7-0.7,1.8-1,3.2-1
		c1.4,0,2.5,0.3,3.3,1c0.8,0.7,1.1,1.6,1.1,2.8c0,1.3-0.4,2.2-1.1,2.9C152.7,347,151.6,347.4,150.2,347.4z M150.2,377.3
		c-1.2,0-2.1-0.4-2.8-1.1c-0.7-0.7-1-1.8-1-3.1v-17.5c0-1.4,0.3-2.4,1-3.1c0.7-0.7,1.6-1,2.8-1c1.3,0,2.2,0.3,2.9,1
		c0.7,0.7,1,1.7,1,3.1v17.5c0,1.3-0.3,2.4-1,3.1C152.4,377,151.5,377.3,150.2,377.3z"/>
	<path class="st9" d="M173,377.4c-3,0-5.5-0.5-7.6-1.6c-2.1-1.1-3.8-2.6-4.9-4.5c-1.1-2-1.7-4.3-1.7-7c0-2.6,0.6-4.8,1.7-6.8
		c1.1-1.9,2.6-3.4,4.6-4.6s4.1-1.7,6.6-1.7c1.9,0,3.5,0.3,5,0.9c1.4,0.6,2.7,1.4,3.7,2.5c1.1,1.1,1.9,2.4,2.4,4
		c0.5,1.6,0.8,3.3,0.8,5.3c0,0.6-0.2,1.1-0.6,1.5c-0.4,0.3-1,0.5-1.8,0.5h-16v-4H178l-0.8,0.7c0-1.4-0.2-2.6-0.6-3.5
		c-0.4-0.9-1-1.6-1.8-2.1c-0.8-0.5-1.7-0.7-2.8-0.7c-1.3,0-2.3,0.3-3.2,0.9c-0.9,0.6-1.6,1.4-2,2.5c-0.5,1.1-0.7,2.4-0.7,4v0.4
		c0,2.6,0.6,4.5,1.8,5.7c1.2,1.2,3,1.8,5.4,1.8c0.8,0,1.7-0.1,2.8-0.3s2-0.5,3-1c0.8-0.4,1.5-0.5,2.1-0.4c0.6,0.1,1,0.4,1.4,0.8
		c0.4,0.4,0.6,0.9,0.6,1.5c0,0.6-0.1,1.1-0.4,1.7c-0.3,0.6-0.8,1-1.5,1.4c-1.2,0.7-2.5,1.2-4,1.5C175.8,377.3,174.4,377.4,173,377.4
		z"/>
	<path class="st9" d="M192.6,377.3c-1.3,0-2.2-0.3-2.9-1s-1-1.7-1-3V345c0-1.3,0.3-2.3,1-3s1.7-1,2.9-1h12.4c4,0,7.1,1,9.3,3.1
		c2.2,2,3.3,4.8,3.3,8.4c0,3.6-1.1,6.4-3.3,8.5c-2.2,2.1-5.3,3.1-9.3,3.1h-8.5v9.3c0,1.3-0.3,2.3-1,3S193.9,377.3,192.6,377.3z
		 M196.6,357.9h7.2c2,0,3.6-0.5,4.7-1.4c1.1-0.9,1.6-2.3,1.6-4.1c0-1.8-0.5-3.1-1.6-4c-1.1-0.9-2.6-1.3-4.7-1.3h-7.2V357.9z"/>
	<path class="st9" d="M232.5,377.4c-2.7,0-5-0.5-7-1.6c-2-1.1-3.5-2.6-4.6-4.5c-1.1-2-1.7-4.3-1.7-7c0-2,0.3-3.8,0.9-5.4
		c0.6-1.6,1.5-3,2.7-4.1c1.2-1.1,2.6-2,4.2-2.6c1.6-0.6,3.5-0.9,5.4-0.9c2.7,0,5,0.5,7,1.6c2,1.1,3.5,2.6,4.6,4.5
		c1.1,2,1.7,4.3,1.7,6.9c0,2-0.3,3.8-0.9,5.5s-1.5,3-2.7,4.1s-2.5,2-4.2,2.6C236.4,377.1,234.6,377.4,232.5,377.4z M232.5,371.7
		c1.1,0,2.1-0.3,2.9-0.8c0.8-0.5,1.5-1.3,1.9-2.4c0.5-1.1,0.7-2.5,0.7-4.1c0-2.5-0.5-4.3-1.5-5.5c-1-1.2-2.4-1.8-4-1.8
		c-1.1,0-2,0.3-2.9,0.8c-0.8,0.5-1.5,1.3-1.9,2.4c-0.5,1.1-0.7,2.4-0.7,4.1c0,2.5,0.5,4.4,1.5,5.6
		C229.6,371.1,230.9,371.7,232.5,371.7z"/>
	<path class="st9" d="M254.4,386.5c-1.2,0-2.1-0.3-2.8-1c-0.7-0.6-1-1.6-1-2.9v-27.3c0-1.3,0.3-2.2,1-2.9s1.6-1,2.8-1
		c1.2,0,2.1,0.3,2.8,1s1,1.6,1,2.9v3.5l-0.6-2c0.5-1.7,1.5-3,3.1-4c1.5-1,3.3-1.5,5.3-1.5c2.2,0,4.1,0.5,5.8,1.6s2.9,2.5,3.9,4.5
		c0.9,1.9,1.4,4.3,1.4,6.9c0,2.7-0.5,5-1.4,7s-2.2,3.5-3.8,4.5c-1.6,1-3.6,1.6-5.8,1.6c-2,0-3.7-0.5-5.3-1.4s-2.5-2.2-3.1-3.7h0.6
		v10.4c0,1.3-0.3,2.3-1,2.9C256.6,386.2,255.6,386.5,254.4,386.5z M263.7,371.7c1.1,0,2-0.3,2.9-0.8s1.5-1.3,1.9-2.4
		c0.5-1.1,0.7-2.5,0.7-4.1c0-2.5-0.5-4.3-1.5-5.5c-1-1.2-2.3-1.8-4-1.8c-1.1,0-2,0.3-2.9,0.8c-0.8,0.5-1.5,1.3-1.9,2.4
		c-0.5,1.1-0.7,2.4-0.7,4.1c0,2.5,0.5,4.4,1.5,5.6C260.7,371.1,262.1,371.7,263.7,371.7z"/>
	<path class="st9" d="M285.4,377.2c-1.4,0-2.4-0.4-3.2-1.2s-1.2-1.9-1.2-3.2c0-1.3,0.4-2.3,1.2-3.1c0.8-0.8,1.9-1.2,3.2-1.2
		c1.4,0,2.4,0.4,3.2,1.2c0.8,0.8,1.1,1.8,1.1,3.1c0,1.3-0.4,2.4-1.1,3.2C287.8,376.8,286.7,377.2,285.4,377.2z M285.4,365.9
		c-0.8,0-1.4-0.2-1.8-0.7c-0.4-0.5-0.7-1.2-0.8-2l-1.7-17.5c-0.2-1.5,0.1-2.7,0.9-3.6s1.9-1.4,3.4-1.4s2.6,0.5,3.3,1.4
		c0.7,0.9,1,2.1,0.8,3.6l-1.6,17.5c-0.1,0.9-0.4,1.6-0.8,2C286.7,365.6,286.1,365.9,285.4,365.9z"/>
</g>
</svg>
